<svg width="150" height="150" viewBox="0 0 150 150" fill="none" xmlns="http://www.w3.org/2000/svg">
<mask id="path-1-inside-1_36_2" fill="white">
<path d="M150 75C150 91.0361 144.86 106.65 135.335 119.55C125.809 132.451 112.4 141.958 97.0739 146.678C81.7481 151.398 65.3131 151.081 50.1806 145.774C35.048 140.468 22.0148 130.45 12.9935 117.192C3.97219 103.935 -0.562213 88.1342 0.0556995 72.11C0.673612 56.0859 6.4113 40.6817 16.4268 28.1579C26.4423 15.6342 40.2082 6.65027 55.7045 2.52461C71.2007 -1.60105 87.6113 -0.651234 102.528 5.23467L98.8107 14.656C85.9083 9.56492 71.7138 8.74338 58.3102 12.3119C44.9066 15.8804 32.9997 23.6511 24.3367 34.4836C15.6737 45.3161 10.7109 58.6401 10.1764 72.5003C9.64192 86.3605 13.564 100.027 21.367 111.495C29.1701 122.962 40.4433 131.627 53.5322 136.217C66.6212 140.807 80.8368 141.081 94.093 136.998C107.349 132.916 118.948 124.692 127.187 113.534C135.426 102.376 139.872 88.8705 139.872 75H150Z"/>
</mask>
<path d="M150 75C150 91.0361 144.86 106.65 135.335 119.55C125.809 132.451 112.4 141.958 97.0739 146.678C81.7481 151.398 65.3131 151.081 50.1806 145.774C35.048 140.468 22.0148 130.45 12.9935 117.192C3.97219 103.935 -0.562213 88.1342 0.0556995 72.11C0.673612 56.0859 6.4113 40.6817 16.4268 28.1579C26.4423 15.6342 40.2082 6.65027 55.7045 2.52461C71.2007 -1.60105 87.6113 -0.651234 102.528 5.23467L98.8107 14.656C85.9083 9.56492 71.7138 8.74338 58.3102 12.3119C44.9066 15.8804 32.9997 23.6511 24.3367 34.4836C15.6737 45.3161 10.7109 58.6401 10.1764 72.5003C9.64192 86.3605 13.564 100.027 21.367 111.495C29.1701 122.962 40.4433 131.627 53.5322 136.217C66.6212 140.807 80.8368 141.081 94.093 136.998C107.349 132.916 118.948 124.692 127.187 113.534C135.426 102.376 139.872 88.8705 139.872 75H150Z" stroke="#6472EA" stroke-width="20" mask="url(#path-1-inside-1_36_2)"/>
</svg>
